# xmcd
#
# Track frame offsets:
#	150
#	18855
#	38307
#
# Disc length: 704 seconds
#
# Revision: 1
# Processed by: cddbd v1.5.1PL0 Copyright (c) Steve Scherf et al.
# Submitted via: CDex 1.50Beta5
#
DISCID=1002be03
DTITLE=モカイヌーズ - Cafe de RENBO
DYEAR=2002
DGENRE=Pop
TTITLE0=Cafe` De Renbo
TTITLE1=ココロノハナ
TTITLE2=モカ曜日
EXTD=
EXTT0=
EXTT1=
EXTT2=
PLAYORDER=
